solid robot
  facet normal 0.0 0.0 -1.0
    outer loop
      vertex 0 0 0
      vertex 149.27770900082953 14.702571049434091 0
      vertex 150.0 0.0 0
    endloop
  endfacet
  facet normal 0.0 0.0 1.0
    outer loop
      vertex 0 0 50
      vertex 150.0 0.0 50
      vertex 149.27770900082953 14.702571049434091 50
    endloop
  endfacet
  facet normal 0.9987954562051725 0.0490676743274181 -0.0
    outer loop
      vertex 150.0 0.0 0
      vertex 149.27770900082953 14.702571049434091 0
      vertex 150.0 0.0 50
    endloop
  endfacet
  facet normal 0.9987954562051725 0.0490676743274181 0.0
    outer loop
      vertex 150.0 0.0 50
      vertex 149.27770900082953 14.702571049434091 0
      vertex 149.27770900082953 14.702571049434091 50
    endloop
  endfacet
  facet normal 0.0 0.0 -1.0
    outer loop
      vertex 0 0 0
      vertex 147.11779206048456 29.263548302419238 0
      vertex 149.27770900082953 14.702571049434091 0
    endloop
  endfacet
  facet normal 0.0 0.0 1.0
    outer loop
      vertex 0 0 50
      vertex 149.27770900082953 14.702571049434091 50
      vertex 147.11779206048456 29.263548302419238 50
    endloop
  endfacet
  facet normal 0.9891765099647809 0.14673047445536214 -0.0
    outer loop
      vertex 149.27770900082953 14.702571049434091 0
      vertex 147.11779206048456 29.263548302419238 0
      vertex 149.27770900082953 14.702571049434091 50
    endloop
  endfacet
  facet normal 0.9891765099647809 0.14673047445536214 0.0
    outer loop
      vertex 149.27770900082953 14.702571049434091 50
      vertex 147.11779206048456 29.263548302419238 0
      vertex 147.11779206048456 29.263548302419238 50
    endloop
  endfacet
  facet normal 0.0 0.0 -1.0
    outer loop
      vertex 0 0 0
      vertex 143.54105035983133 43.54270158816935 0
      vertex 147.11779206048456 29.263548302419238 0
    endloop
  endfacet
  facet normal 0.0 0.0 1.0
    outer loop
      vertex 0 0 50
      vertex 147.11779206048456 29.263548302419238 50
      vertex 143.54105035983133 43.54270158816935 50
    endloop
  endfacet
  facet normal 0.9700312531945442 0.24298017990326345 -0.0
    outer loop
      vertex 147.11779206048456 29.263548302419238 0
      vertex 143.54105035983133 43.54270158816935 0
      vertex 147.11779206048456 29.263548302419238 50
    endloop
  endfacet
  facet normal 0.9700312531945442 0.24298017990326345 0.0
    outer loop
      vertex 147.11779206048456 29.263548302419238 50
      vertex 143.54105035983133 43.54270158816935 0
      vertex 143.54105035983133 43.54270158816935 50
    endloop
  endfacet
  facet normal 0.0 0.0 -1.0
    outer loop
      vertex 0 0 0
      vertex 138.581929876693 57.40251485476347 0
      vertex 143.54105035983133 43.54270158816935 0
    endloop
  endfacet
  facet normal 0.0 0.0 1.0
    outer loop
      vertex 0 0 50
      vertex 143.54105035983133 43.54270158816935 50
      vertex 138.581929876693 57.40251485476347 50
    endloop
  endfacet
  facet normal 0.9415440651830207 0.33688985339222016 -0.0
    outer loop
      vertex 143.54105035983133 43.54270158816935 0
      vertex 138.581929876693 57.40251485476347 0
      vertex 143.54105035983133 43.54270158816935 50
    endloop
  endfacet
  facet normal 0.9415440651830207 0.33688985339222016 0.0
    outer loop
      vertex 143.54105035983133 43.54270158816935 50
      vertex 138.581929876693 57.40251485476347 0
      vertex 138.581929876693 57.40251485476347 50
    endloop
  endfacet
  facet normal 0.0 0.0 -1.0
    outer loop
      vertex 0 0 0
      vertex 132.28818965225327 70.70951052389965 0
      vertex 138.581929876693 57.40251485476347 0
    endloop
  endfacet
  facet normal 0.0 0.0 1.0
    outer loop
      vertex 0 0 50
      vertex 138.581929876693 57.40251485476347 50
      vertex 132.28818965225327 70.70951052389965 50
    endloop
  endfacet
  facet normal 0.9039892931234437 0.42755509343028114 -0.0
    outer loop
      vertex 138.581929876693 57.40251485476347 0
      vertex 132.28818965225327 70.70951052389965 0
      vertex 138.581929876693 57.40251485476347 50
    endloop
  endfacet
  facet normal 0.9039892931234437 0.42755509343028114 0.0
    outer loop
      vertex 138.581929876693 57.40251485476347 50
      vertex 132.28818965225327 70.70951052389965 0
      vertex 132.28818965225327 70.70951052389965 50
    endloop
  endfacet
  facet normal 0.0 0.0 -1.0
    outer loop
      vertex 0 0 0
      vertex 124.72044184538179 83.33553495294032 0
      vertex 132.28818965225327 70.70951052389965 0
    endloop
  endfacet
  facet normal 0.0 0.0 1.0
    outer loop
      vertex 0 0 50
      vertex 132.28818965225327 70.70951052389965 50
      vertex 124.72044184538179 83.33553495294032 50
    endloop
  endfacet
  facet normal 0.8577286100002715 0.5141027441932228 -0.0
    outer loop
      vertex 132.28818965225327 70.70951052389965 0
      vertex 124.72044184538179 83.33553495294032 0
      vertex 132.28818965225327 70.70951052389965 50
    endloop
  endfacet
  facet normal 0.8577286100002715 0.5141027441932228 0.0
    outer loop
      vertex 132.28818965225327 70.70951052389965 50
      vertex 124.72044184538179 83.33553495294032 0
      vertex 124.72044184538179 83.33553495294032 50
    endloop
  endfacet
  facet normal 0.0 0.0 -1.0
    outer loop
      vertex 0 0 0
      vertex 115.95156800441055 95.15899262454683 0
      vertex 124.72044184538179 83.33553495294032 0
    endloop
  endfacet
  facet normal 0.0 0.0 1.0
    outer loop
      vertex 0 0 50
      vertex 124.72044184538179 83.33553495294032 50
      vertex 115.95156800441055 95.15899262454683 50
    endloop
  endfacet
  facet normal 0.8032075314806454 0.5956993044924328 -0.0
    outer loop
      vertex 124.72044184538179 83.33553495294032 0
      vertex 115.95156800441055 95.15899262454683 0
      vertex 124.72044184538179 83.33553495294032 50
    endloop
  endfacet
  facet normal 0.8032075314806454 0.5956993044924328 0.0
    outer loop
      vertex 124.72044184538179 83.33553495294032 50
      vertex 115.95156800441055 95.15899262454683 0
      vertex 115.95156800441055 95.15899262454683 50
    endloop
  endfacet
  facet normal 0.0 0.0 -1.0
    outer loop
      vertex 0 0 0
      vertex 106.06601717798213 106.06601717798212 0
      vertex 115.95156800441055 95.15899262454683 0
    endloop
  endfacet
  facet normal 0.0 0.0 1.0
    outer loop
      vertex 0 0 50
      vertex 115.95156800441055 95.15899262454683 50
      vertex 106.06601717798213 106.06601717798212 50
    endloop
  endfacet
  facet normal 0.7409511253549588 0.6715589548470188 -0.0
    outer loop
      vertex 115.95156800441055 95.15899262454683 0
      vertex 106.06601717798213 106.06601717798212 0
      vertex 115.95156800441055 95.15899262454683 50
    endloop
  endfacet
  facet normal 0.7409511253549588 0.6715589548470188 0.0
    outer loop
      vertex 115.95156800441055 95.15899262454683 50
      vertex 106.06601717798213 106.06601717798212 0
      vertex 106.06601717798213 106.06601717798212 50
    endloop
  endfacet
  facet normal 0.0 0.0 -1.0
    outer loop
      vertex 0 0 0
      vertex 95.15899262454683 115.95156800441055 0
      vertex 106.06601717798213 106.06601717798212 0
    endloop
  endfacet
  facet normal 0.0 0.0 1.0
    outer loop
      vertex 0 0 50
      vertex 106.06601717798213 106.06601717798212 50
      vertex 95.15899262454683 115.95156800441055 50
    endloop
  endfacet
  facet normal 0.6715589548470189 0.7409511253549588 -0.0
    outer loop
      vertex 106.06601717798213 106.06601717798212 0
      vertex 95.15899262454683 115.95156800441055 0
      vertex 106.06601717798213 106.06601717798212 50
    endloop
  endfacet
  facet normal 0.6715589548470189 0.7409511253549588 0.0
    outer loop
      vertex 106.06601717798213 106.06601717798212 50
      vertex 95.15899262454683 115.95156800441055 0
      vertex 95.15899262454683 115.95156800441055 50
    endloop
  endfacet
  facet normal 0.0 0.0 -1.0
    outer loop
      vertex 0 0 0
      vertex 83.33553495294035 124.72044184538179 0
      vertex 95.15899262454683 115.95156800441055 0
    endloop
  endfacet
  facet normal 0.0 0.0 1.0
    outer loop
      vertex 0 0 50
      vertex 95.15899262454683 115.95156800441055 50
      vertex 83.33553495294035 124.72044184538179 50
    endloop
  endfacet
  facet normal 0.5956993044924337 0.8032075314806446 -0.0
    outer loop
      vertex 95.15899262454683 115.95156800441055 0
      vertex 83.33553495294035 124.72044184538179 0
      vertex 95.15899262454683 115.95156800441055 50
    endloop
  endfacet
  facet normal 0.5956993044924337 0.8032075314806446 0.0
    outer loop
      vertex 95.15899262454683 115.95156800441055 50
      vertex 83.33553495294035 124.72044184538179 0
      vertex 83.33553495294035 124.72044184538179 50
    endloop
  endfacet
  facet normal 0.0 0.0 -1.0
    outer loop
      vertex 0 0 0
      vertex 70.70951052389967 132.28818965225324 0
      vertex 83.33553495294035 124.72044184538179 0
    endloop
  endfacet
  facet normal 0.0 0.0 1.0
    outer loop
      vertex 0 0 50
      vertex 83.33553495294035 124.72044184538179 50
      vertex 70.70951052389967 132.28818965225324 50
    endloop
  endfacet
  facet normal 0.514102744193221 0.8577286100002725 -0.0
    outer loop
      vertex 83.33553495294035 124.72044184538179 0
      vertex 70.70951052389967 132.28818965225324 0
      vertex 83.33553495294035 124.72044184538179 50
    endloop
  endfacet
  facet normal 0.514102744193221 0.8577286100002725 0.0
    outer loop
      vertex 83.33553495294035 124.72044184538179 50
      vertex 70.70951052389967 132.28818965225324 0
      vertex 70.70951052389967 132.28818965225324 50
    endloop
  endfacet
  facet normal 0.0 0.0 -1.0
    outer loop
      vertex 0 0 0
      vertex 57.402514854763474 138.581929876693 0
      vertex 70.70951052389967 132.28818965225324 0
    endloop
  endfacet
  facet normal 0.0 0.0 1.0
    outer loop
      vertex 0 0 50
      vertex 70.70951052389967 132.28818965225324 50
      vertex 57.402514854763474 138.581929876693 50
    endloop
  endfacet
  facet normal 0.4275550934302826 0.9039892931234431 -0.0
    outer loop
      vertex 70.70951052389967 132.28818965225324 0
      vertex 57.402514854763474 138.581929876693 0
      vertex 70.70951052389967 132.28818965225324 50
    endloop
  endfacet
  facet normal 0.4275550934302826 0.9039892931234431 0.0
    outer loop
      vertex 70.70951052389967 132.28818965225324 50
      vertex 57.402514854763474 138.581929876693 0
      vertex 57.402514854763474 138.581929876693 50
    endloop
  endfacet
  facet normal 0.0 0.0 -1.0
    outer loop
      vertex 0 0 0
      vertex 43.54270158816935 143.54105035983133 0
      vertex 57.402514854763474 138.581929876693 0
    endloop
  endfacet
  facet normal 0.0 0.0 1.0
    outer loop
      vertex 0 0 50
      vertex 57.402514854763474 138.581929876693 50
      vertex 43.54270158816935 143.54105035983133 50
    endloop
  endfacet
  facet normal 0.33688985339222 0.9415440651830207 -0.0
    outer loop
      vertex 57.402514854763474 138.581929876693 0
      vertex 43.54270158816935 143.54105035983133 0
      vertex 57.402514854763474 138.581929876693 50
    endloop
  endfacet
  facet normal 0.33688985339222 0.9415440651830207 0.0
    outer loop
      vertex 57.402514854763474 138.581929876693 50
      vertex 43.54270158816935 143.54105035983133 0
      vertex 43.54270158816935 143.54105035983133 50
    endloop
  endfacet
  facet normal 0.0 0.0 -1.0
    outer loop
      vertex 0 0 0
      vertex 29.26354830241925 147.11779206048456 0
      vertex 43.54270158816935 143.54105035983133 0
    endloop
  endfacet
  facet normal 0.0 0.0 1.0
    outer loop
      vertex 0 0 50
      vertex 43.54270158816935 143.54105035983133 50
      vertex 29.26354830241925 147.11779206048456 50
    endloop
  endfacet
  facet normal 0.24298017990326362 0.9700312531945441 -0.0
    outer loop
      vertex 43.54270158816935 143.54105035983133 0
      vertex 29.26354830241925 147.11779206048456 0
      vertex 43.54270158816935 143.54105035983133 50
    endloop
  endfacet
  facet normal 0.24298017990326362 0.9700312531945441 0.0
    outer loop
      vertex 43.54270158816935 143.54105035983133 50
      vertex 29.26354830241925 147.11779206048456 0
      vertex 29.26354830241925 147.11779206048456 50
    endloop
  endfacet
  facet normal 0.0 0.0 -1.0
    outer loop
      vertex 0 0 0
      vertex 14.702571049434116 149.27770900082953 0
      vertex 29.26354830241925 147.11779206048456 0
    endloop
  endfacet
  facet normal 0.0 0.0 1.0
    outer loop
      vertex 0 0 50
      vertex 29.26354830241925 147.11779206048456 50
      vertex 14.702571049434116 149.27770900082953 50
    endloop
  endfacet
  facet normal 0.14673047445536228 0.9891765099647809 -0.0
    outer loop
      vertex 29.26354830241925 147.11779206048456 0
      vertex 14.702571049434116 149.27770900082953 0
      vertex 29.26354830241925 147.11779206048456 50
    endloop
  endfacet
  facet normal 0.14673047445536228 0.9891765099647809 0.0
    outer loop
      vertex 29.26354830241925 147.11779206048456 50
      vertex 14.702571049434116 149.27770900082953 0
      vertex 14.702571049434116 149.27770900082953 50
    endloop
  endfacet
  facet normal 0.0 0.0 -1.0
    outer loop
      vertex 0 0 0
      vertex 9.184850993605149e-15 150.0 0
      vertex 14.702571049434116 149.27770900082953 0
    endloop
  endfacet
  facet normal 0.0 0.0 1.0
    outer loop
      vertex 0 0 50
      vertex 14.702571049434116 149.27770900082953 50
      vertex 9.184850993605149e-15 150.0 50
    endloop
  endfacet
  facet normal 0.04906767432741804 0.9987954562051725 -0.0
    outer loop
      vertex 14.702571049434116 149.27770900082953 0
      vertex 9.184850993605149e-15 150.0 0
      vertex 14.702571049434116 149.27770900082953 50
    endloop
  endfacet
  facet normal 0.04906767432741804 0.9987954562051725 0.0
    outer loop
      vertex 14.702571049434116 149.27770900082953 50
      vertex 9.184850993605149e-15 150.0 0
      vertex 9.184850993605149e-15 150.0 50
    endloop
  endfacet
  facet normal 0.0 0.0 -1.0
    outer loop
      vertex 0 0 0
      vertex -14.702571049434097 149.27770900082953 0
      vertex 9.184850993605149e-15 150.0 0
    endloop
  endfacet
  facet normal 0.0 -0.0 1.0
    outer loop
      vertex 0 0 50
      vertex 9.184850993605149e-15 150.0 50
      vertex -14.702571049434097 149.27770900082953 50
    endloop
  endfacet
  facet normal -0.04906767432741804 0.9987954562051723 0.0
    outer loop
      vertex 9.184850993605149e-15 150.0 0
      vertex -14.702571049434097 149.27770900082953 0
      vertex 9.184850993605149e-15 150.0 50
    endloop
  endfacet
  facet normal -0.04906767432741804 0.9987954562051723 0.0
    outer loop
      vertex 9.184850993605149e-15 150.0 50
      vertex -14.702571049434097 149.27770900082953 0
      vertex -14.702571049434097 149.27770900082953 50
    endloop
  endfacet
  facet normal 0.0 0.0 -1.0
    outer loop
      vertex 0 0 0
      vertex -29.263548302419228 147.11779206048456 0
      vertex -14.702571049434097 149.27770900082953 0
    endloop
  endfacet
  facet normal 0.0 0.0 1.0
    outer loop
      vertex 0 0 50
      vertex -14.702571049434097 149.27770900082953 50
      vertex -29.263548302419228 147.11779206048456 50
    endloop
  endfacet
  facet normal -0.14673047445536228 0.9891765099647809 0.0
    outer loop
      vertex -14.702571049434097 149.27770900082953 0
      vertex -29.263548302419228 147.11779206048456 0
      vertex -14.702571049434097 149.27770900082953 50
    endloop
  endfacet
  facet normal -0.14673047445536228 0.9891765099647809 0.0
    outer loop
      vertex -14.702571049434097 149.27770900082953 50
      vertex -29.263548302419228 147.11779206048456 0
      vertex -29.263548302419228 147.11779206048456 50
    endloop
  endfacet
  facet normal 0.0 0.0 -1.0
    outer loop
      vertex 0 0 0
      vertex -43.54270158816932 143.54105035983133 0
      vertex -29.263548302419228 147.11779206048456 0
    endloop
  endfacet
  facet normal 0.0 0.0 1.0
    outer loop
      vertex 0 0 50
      vertex -29.263548302419228 147.11779206048456 50
      vertex -43.54270158816932 143.54105035983133 50
    endloop
  endfacet
  facet normal -0.2429801799032637 0.970031253194544 0.0
    outer loop
      vertex -29.263548302419228 147.11779206048456 0
      vertex -43.54270158816932 143.54105035983133 0
      vertex -29.263548302419228 147.11779206048456 50
    endloop
  endfacet
  facet normal -0.2429801799032637 0.970031253194544 0.0
    outer loop
      vertex -29.263548302419228 147.11779206048456 50
      vertex -43.54270158816932 143.54105035983133 0
      vertex -43.54270158816932 143.54105035983133 50
    endloop
  endfacet
  facet normal 0.0 0.0 -1.0
    outer loop
      vertex 0 0 0
      vertex -57.40251485476346 138.581929876693 0
      vertex -43.54270158816932 143.54105035983133 0
    endloop
  endfacet
  facet normal 0.0 0.0 1.0
    outer loop
      vertex 0 0 50
      vertex -43.54270158816932 143.54105035983133 50
      vertex -57.40251485476346 138.581929876693 50
    endloop
  endfacet
  facet normal -0.3368898533922198 0.9415440651830209 0.0
    outer loop
      vertex -43.54270158816932 143.54105035983133 0
      vertex -57.40251485476346 138.581929876693 0
      vertex -43.54270158816932 143.54105035983133 50
    endloop
  endfacet
  facet normal -0.3368898533922198 0.9415440651830209 0.0
    outer loop
      vertex -43.54270158816932 143.54105035983133 50
      vertex -57.40251485476346 138.581929876693 0
      vertex -57.40251485476346 138.581929876693 50
    endloop
  endfacet
  facet normal 0.0 0.0 -1.0
    outer loop
      vertex 0 0 0
      vertex -70.70951052389965 132.28818965225327 0
      vertex -57.40251485476346 138.581929876693 0
    endloop
  endfacet
  facet normal 0.0 0.0 1.0
    outer loop
      vertex 0 0 50
      vertex -57.40251485476346 138.581929876693 50
      vertex -70.70951052389965 132.28818965225327 50
    endloop
  endfacet
  facet normal -0.42755509343028103 0.9039892931234439 0.0
    outer loop
      vertex -57.40251485476346 138.581929876693 0
      vertex -70.70951052389965 132.28818965225327 0
      vertex -57.40251485476346 138.581929876693 50
    endloop
  endfacet
  facet normal -0.42755509343028103 0.9039892931234439 0.0
    outer loop
      vertex -57.40251485476346 138.581929876693 50
      vertex -70.70951052389965 132.28818965225327 0
      vertex -70.70951052389965 132.28818965225327 50
    endloop
  endfacet
  facet normal 0.0 0.0 -1.0
    outer loop
      vertex 0 0 0
      vertex -83.3355349529403 124.7204418453818 0
      vertex -70.70951052389965 132.28818965225327 0
    endloop
  endfacet
  facet normal 0.0 0.0 1.0
    outer loop
      vertex 0 0 50
      vertex -70.70951052389965 132.28818965225327 50
      vertex -83.3355349529403 124.7204418453818 50
    endloop
  endfacet
  facet normal -0.514102744193223 0.8577286100002713 0.0
    outer loop
      vertex -70.70951052389965 132.28818965225327 0
      vertex -83.3355349529403 124.7204418453818 0
      vertex -70.70951052389965 132.28818965225327 50
    endloop
  endfacet
  facet normal -0.514102744193223 0.8577286100002713 0.0
    outer loop
      vertex -70.70951052389965 132.28818965225327 50
      vertex -83.3355349529403 124.7204418453818 0
      vertex -83.3355349529403 124.7204418453818 50
    endloop
  endfacet
  facet normal 0.0 0.0 -1.0
    outer loop
      vertex 0 0 0
      vertex -95.15899262454681 115.95156800441056 0
      vertex -83.3355349529403 124.7204418453818 0
    endloop
  endfacet
  facet normal 0.0 0.0 1.0
    outer loop
      vertex 0 0 50
      vertex -83.3355349529403 124.7204418453818 50
      vertex -95.15899262454681 115.95156800441056 50
    endloop
  endfacet
  facet normal -0.5956993044924322 0.8032075314806457 0.0
    outer loop
      vertex -83.3355349529403 124.7204418453818 0
      vertex -95.15899262454681 115.95156800441056 0
      vertex -83.3355349529403 124.7204418453818 50
    endloop
  endfacet
  facet normal -0.5956993044924322 0.8032075314806457 0.0
    outer loop
      vertex -83.3355349529403 124.7204418453818 50
      vertex -95.15899262454681 115.95156800441056 0
      vertex -95.15899262454681 115.95156800441056 50
    endloop
  endfacet
  facet normal 0.0 0.0 -1.0
    outer loop
      vertex 0 0 0
      vertex -106.06601717798212 106.06601717798213 0
      vertex -95.15899262454681 115.95156800441056 0
    endloop
  endfacet
  facet normal 0.0 0.0 1.0
    outer loop
      vertex 0 0 50
      vertex -95.15899262454681 115.95156800441056 50
      vertex -106.06601717798212 106.06601717798213 50
    endloop
  endfacet
  facet normal -0.6715589548470189 0.7409511253549588 0.0
    outer loop
      vertex -95.15899262454681 115.95156800441056 0
      vertex -106.06601717798212 106.06601717798213 0
      vertex -95.15899262454681 115.95156800441056 50
    endloop
  endfacet
  facet normal -0.6715589548470189 0.7409511253549588 0.0
    outer loop
      vertex -95.15899262454681 115.95156800441056 50
      vertex -106.06601717798212 106.06601717798213 0
      vertex -106.06601717798212 106.06601717798213 50
    endloop
  endfacet
  facet normal 0.0 0.0 -1.0
    outer loop
      vertex 0 0 0
      vertex -115.95156800441055 95.15899262454683 0
      vertex -106.06601717798212 106.06601717798213 0
    endloop
  endfacet
  facet normal 0.0 0.0 1.0
    outer loop
      vertex 0 0 50
      vertex -106.06601717798212 106.06601717798213 50
      vertex -115.95156800441055 95.15899262454683 50
    endloop
  endfacet
  facet normal -0.7409511253549588 0.6715589548470189 0.0
    outer loop
      vertex -106.06601717798212 106.06601717798213 0
      vertex -115.95156800441055 95.15899262454683 0
      vertex -106.06601717798212 106.06601717798213 50
    endloop
  endfacet
  facet normal -0.7409511253549588 0.6715589548470189 0.0
    outer loop
      vertex -106.06601717798212 106.06601717798213 50
      vertex -115.95156800441055 95.15899262454683 0
      vertex -115.95156800441055 95.15899262454683 50
    endloop
  endfacet
  facet normal 0.0 0.0 -1.0
    outer loop
      vertex 0 0 0
      vertex -124.7204418453818 83.33553495294032 0
      vertex -115.95156800441055 95.15899262454683 0
    endloop
  endfacet
  facet normal 0.0 0.0 1.0
    outer loop
      vertex 0 0 50
      vertex -115.95156800441055 95.15899262454683 50
      vertex -124.7204418453818 83.33553495294032 50
    endloop
  endfacet
  facet normal -0.8032075314806448 0.5956993044924334 0.0
    outer loop
      vertex -115.95156800441055 95.15899262454683 0
      vertex -124.7204418453818 83.33553495294032 0
      vertex -115.95156800441055 95.15899262454683 50
    endloop
  endfacet
  facet normal -0.8032075314806448 0.5956993044924334 0.0
    outer loop
      vertex -115.95156800441055 95.15899262454683 50
      vertex -124.7204418453818 83.33553495294032 0
      vertex -124.7204418453818 83.33553495294032 50
    endloop
  endfacet
  facet normal 0.0 0.0 -1.0
    outer loop
      vertex 0 0 0
      vertex -132.28818965225324 70.70951052389968 0
      vertex -124.7204418453818 83.33553495294032 0
    endloop
  endfacet
  facet normal 0.0 0.0 1.0
    outer loop
      vertex 0 0 50
      vertex -124.7204418453818 83.33553495294032 50
      vertex -132.28818965225324 70.70951052389968 50
    endloop
  endfacet
  facet normal -0.8577286100002721 0.5141027441932216 0.0
    outer loop
      vertex -124.7204418453818 83.33553495294032 0
      vertex -132.28818965225324 70.70951052389968 0
      vertex -124.7204418453818 83.33553495294032 50
    endloop
  endfacet
  facet normal -0.8577286100002721 0.5141027441932216 0.0
    outer loop
      vertex -124.7204418453818 83.33553495294032 50
      vertex -132.28818965225324 70.70951052389968 0
      vertex -132.28818965225324 70.70951052389968 50
    endloop
  endfacet
  facet normal 0.0 0.0 -1.0
    outer loop
      vertex 0 0 0
      vertex -138.581929876693 57.40251485476348 0
      vertex -132.28818965225324 70.70951052389968 0
    endloop
  endfacet
  facet normal 0.0 0.0 1.0
    outer loop
      vertex 0 0 50
      vertex -132.28818965225324 70.70951052389968 50
      vertex -138.581929876693 57.40251485476348 50
    endloop
  endfacet
  facet normal -0.9039892931234432 0.4275550934302824 0.0
    outer loop
      vertex -132.28818965225324 70.70951052389968 0
      vertex -138.581929876693 57.40251485476348 0
      vertex -132.28818965225324 70.70951052389968 50
    endloop
  endfacet
  facet normal -0.9039892931234432 0.4275550934302824 0.0
    outer loop
      vertex -132.28818965225324 70.70951052389968 50
      vertex -138.581929876693 57.40251485476348 0
      vertex -138.581929876693 57.40251485476348 50
    endloop
  endfacet
  facet normal 0.0 0.0 -1.0
    outer loop
      vertex 0 0 0
      vertex -143.54105035983133 43.54270158816936 0
      vertex -138.581929876693 57.40251485476348 0
    endloop
  endfacet
  facet normal 0.0 0.0 1.0
    outer loop
      vertex 0 0 50
      vertex -138.581929876693 57.40251485476348 50
      vertex -143.54105035983133 43.54270158816936 50
    endloop
  endfacet
  facet normal -0.9415440651830207 0.33688985339222 0.0
    outer loop
      vertex -138.581929876693 57.40251485476348 0
      vertex -143.54105035983133 43.54270158816936 0
      vertex -138.581929876693 57.40251485476348 50
    endloop
  endfacet
  facet normal -0.9415440651830207 0.33688985339222 0.0
    outer loop
      vertex -138.581929876693 57.40251485476348 50
      vertex -143.54105035983133 43.54270158816936 0
      vertex -143.54105035983133 43.54270158816936 50
    endloop
  endfacet
  facet normal 0.0 0.0 -1.0
    outer loop
      vertex 0 0 0
      vertex -147.11779206048456 29.26354830241929 0
      vertex -143.54105035983133 43.54270158816936 0
    endloop
  endfacet
  facet normal 0.0 0.0 1.0
    outer loop
      vertex 0 0 50
      vertex -143.54105035983133 43.54270158816936 50
      vertex -147.11779206048456 29.26354830241929 50
    endloop
  endfacet
  facet normal -0.9700312531945439 0.24298017990326415 0.0
    outer loop
      vertex -143.54105035983133 43.54270158816936 0
      vertex -147.11779206048456 29.26354830241929 0
      vertex -143.54105035983133 43.54270158816936 50
    endloop
  endfacet
  facet normal -0.9700312531945439 0.24298017990326415 0.0
    outer loop
      vertex -143.54105035983133 43.54270158816936 50
      vertex -147.11779206048456 29.26354830241929 0
      vertex -147.11779206048456 29.26354830241929 50
    endloop
  endfacet
  facet normal 0.0 0.0 -1.0
    outer loop
      vertex 0 0 0
      vertex -149.27770900082953 14.702571049434123 0
      vertex -147.11779206048456 29.26354830241929 0
    endloop
  endfacet
  facet normal 0.0 0.0 1.0
    outer loop
      vertex 0 0 50
      vertex -147.11779206048456 29.26354830241929 50
      vertex -149.27770900082953 14.702571049434123 50
    endloop
  endfacet
  facet normal -0.9891765099647809 0.14673047445536191 0.0
    outer loop
      vertex -147.11779206048456 29.26354830241929 0
      vertex -149.27770900082953 14.702571049434123 0
      vertex -147.11779206048456 29.26354830241929 50
    endloop
  endfacet
  facet normal -0.9891765099647809 0.14673047445536191 0.0
    outer loop
      vertex -147.11779206048456 29.26354830241929 50
      vertex -149.27770900082953 14.702571049434123 0
      vertex -149.27770900082953 14.702571049434123 50
    endloop
  endfacet
  facet normal 0.0 0.0 -1.0
    outer loop
      vertex 0 0 0
      vertex -150.0 1.8369701987210297e-14 0
      vertex -149.27770900082953 14.702571049434123 0
    endloop
  endfacet
  facet normal 0.0 0.0 1.0
    outer loop
      vertex 0 0 50
      vertex -149.27770900082953 14.702571049434123 50
      vertex -150.0 1.8369701987210297e-14 50
    endloop
  endfacet
  facet normal -0.9987954562051723 0.04906767432741804 0.0
    outer loop
      vertex -149.27770900082953 14.702571049434123 0
      vertex -150.0 1.8369701987210297e-14 0
      vertex -149.27770900082953 14.702571049434123 50
    endloop
  endfacet
  facet normal -0.9987954562051723 0.04906767432741804 0.0
    outer loop
      vertex -149.27770900082953 14.702571049434123 50
      vertex -150.0 1.8369701987210297e-14 0
      vertex -150.0 1.8369701987210297e-14 50
    endloop
  endfacet
  facet normal -0.0 0.0 -1.0
    outer loop
      vertex 0 0 0
      vertex -149.27770900082953 -14.702571049434088 0
      vertex -150.0 1.8369701987210297e-14 0
    endloop
  endfacet
  facet normal 0.0 0.0 1.0
    outer loop
      vertex 0 0 50
      vertex -150.0 1.8369701987210297e-14 50
      vertex -149.27770900082953 -14.702571049434088 50
    endloop
  endfacet
  facet normal -0.9987954562051723 -0.04906767432741804 0.0
    outer loop
      vertex -150.0 1.8369701987210297e-14 0
      vertex -149.27770900082953 -14.702571049434088 0
      vertex -150.0 1.8369701987210297e-14 50
    endloop
  endfacet
  facet normal -0.9987954562051723 -0.04906767432741804 0.0
    outer loop
      vertex -150.0 1.8369701987210297e-14 50
      vertex -149.27770900082953 -14.702571049434088 0
      vertex -149.27770900082953 -14.702571049434088 50
    endloop
  endfacet
  facet normal 0.0 0.0 -1.0
    outer loop
      vertex 0 0 0
      vertex -147.11779206048456 -29.263548302419252 0
      vertex -149.27770900082953 -14.702571049434088 0
    endloop
  endfacet
  facet normal 0.0 0.0 1.0
    outer loop
      vertex 0 0 50
      vertex -149.27770900082953 -14.702571049434088 50
      vertex -147.11779206048456 -29.263548302419252 50
    endloop
  endfacet
  facet normal -0.9891765099647809 -0.14673047445536194 0.0
    outer loop
      vertex -149.27770900082953 -14.702571049434088 0
      vertex -147.11779206048456 -29.263548302419252 0
      vertex -149.27770900082953 -14.702571049434088 50
    endloop
  endfacet
  facet normal -0.9891765099647809 -0.14673047445536194 0.0
    outer loop
      vertex -149.27770900082953 -14.702571049434088 50
      vertex -147.11779206048456 -29.263548302419252 0
      vertex -147.11779206048456 -29.263548302419252 50
    endloop
  endfacet
  facet normal 0.0 0.0 -1.0
    outer loop
      vertex 0 0 0
      vertex -143.54105035983133 -43.542701588169315 0
      vertex -147.11779206048456 -29.263548302419252 0
    endloop
  endfacet
  facet normal 0.0 0.0 1.0
    outer loop
      vertex 0 0 50
      vertex -147.11779206048456 -29.263548302419252 50
      vertex -143.54105035983133 -43.542701588169315 50
    endloop
  endfacet
  facet normal -0.9700312531945439 -0.24298017990326423 0.0
    outer loop
      vertex -147.11779206048456 -29.263548302419252 0
      vertex -143.54105035983133 -43.542701588169315 0
      vertex -147.11779206048456 -29.263548302419252 50
    endloop
  endfacet
  facet normal -0.9700312531945439 -0.24298017990326423 0.0
    outer loop
      vertex -147.11779206048456 -29.263548302419252 50
      vertex -143.54105035983133 -43.542701588169315 0
      vertex -143.54105035983133 -43.542701588169315 50
    endloop
  endfacet
  facet normal 0.0 0.0 -1.0
    outer loop
      vertex 0 0 0
      vertex -138.58192987669304 -57.40251485476345 0
      vertex -143.54105035983133 -43.542701588169315 0
    endloop
  endfacet
  facet normal 0.0 0.0 1.0
    outer loop
      vertex 0 0 50
      vertex -143.54105035983133 -43.542701588169315 50
      vertex -138.58192987669304 -57.40251485476345 50
    endloop
  endfacet
  facet normal -0.9415440651830215 -0.336889853392218 0.0
    outer loop
      vertex -143.54105035983133 -43.542701588169315 0
      vertex -138.58192987669304 -57.40251485476345 0
      vertex -143.54105035983133 -43.542701588169315 50
    endloop
  endfacet
  facet normal -0.9415440651830215 -0.336889853392218 0.0
    outer loop
      vertex -143.54105035983133 -43.542701588169315 50
      vertex -138.58192987669304 -57.40251485476345 0
      vertex -138.58192987669304 -57.40251485476345 50
    endloop
  endfacet
  facet normal 0.0 0.0 -1.0
    outer loop
      vertex 0 0 0
      vertex -132.28818965225327 -70.70951052389965 0
      vertex -138.58192987669304 -57.40251485476345 0
    endloop
  endfacet
  facet normal 0.0 0.0 1.0
    outer loop
      vertex 0 0 50
      vertex -138.58192987669304 -57.40251485476345 50
      vertex -132.28818965225327 -70.70951052389965 50
    endloop
  endfacet
  facet normal -0.9039892931234432 -0.4275550934302824 0.0
    outer loop
      vertex -138.58192987669304 -57.40251485476345 0
      vertex -132.28818965225327 -70.70951052389965 0
      vertex -138.58192987669304 -57.40251485476345 50
    endloop
  endfacet
  facet normal -0.9039892931234432 -0.4275550934302824 0.0
    outer loop
      vertex -138.58192987669304 -57.40251485476345 50
      vertex -132.28818965225327 -70.70951052389965 0
      vertex -132.28818965225327 -70.70951052389965 50
    endloop
  endfacet
  facet normal 0.0 0.0 -1.0
    outer loop
      vertex 0 0 0
      vertex -124.72044184538181 -83.3355349529403 0
      vertex -132.28818965225327 -70.70951052389965 0
    endloop
  endfacet
  facet normal 0.0 0.0 1.0
    outer loop
      vertex 0 0 50
      vertex -132.28818965225327 -70.70951052389965 50
      vertex -124.72044184538181 -83.3355349529403 50
    endloop
  endfacet
  facet normal -0.8577286100002717 -0.5141027441932223 0.0
    outer loop
      vertex -132.28818965225327 -70.70951052389965 0
      vertex -124.72044184538181 -83.3355349529403 0
      vertex -132.28818965225327 -70.70951052389965 50
    endloop
  endfacet
  facet normal -0.8577286100002717 -0.5141027441932223 0.0
    outer loop
      vertex -132.28818965225327 -70.70951052389965 50
      vertex -124.72044184538181 -83.3355349529403 0
      vertex -124.72044184538181 -83.3355349529403 50
    endloop
  endfacet
  facet normal 0.0 0.0 -1.0
    outer loop
      vertex 0 0 0
      vertex -115.95156800441056 -95.15899262454678 0
      vertex -124.72044184538181 -83.3355349529403 0
    endloop
  endfacet
  facet normal 0.0 0.0 1.0
    outer loop
      vertex 0 0 50
      vertex -124.72044184538181 -83.3355349529403 50
      vertex -115.95156800441056 -95.15899262454678 50
    endloop
  endfacet
  facet normal -0.8032075314806445 -0.5956993044924339 0.0
    outer loop
      vertex -124.72044184538181 -83.3355349529403 0
      vertex -115.95156800441056 -95.15899262454678 0
      vertex -124.72044184538181 -83.3355349529403 50
    endloop
  endfacet
  facet normal -0.8032075314806445 -0.5956993044924339 0.0
    outer loop
      vertex -124.72044184538181 -83.3355349529403 50
      vertex -115.95156800441056 -95.15899262454678 0
      vertex -115.95156800441056 -95.15899262454678 50
    endloop
  endfacet
  facet normal 0.0 0.0 -1.0
    outer loop
      vertex 0 0 0
      vertex -106.06601717798215 -106.06601717798212 0
      vertex -115.95156800441056 -95.15899262454678 0
    endloop
  endfacet
  facet normal 0.0 0.0 1.0
    outer loop
      vertex 0 0 50
      vertex -115.95156800441056 -95.15899262454678 50
      vertex -106.06601717798215 -106.06601717798212 50
    endloop
  endfacet
  facet normal -0.7409511253549601 -0.6715589548470173 0.0
    outer loop
      vertex -115.95156800441056 -95.15899262454678 0
      vertex -106.06601717798215 -106.06601717798212 0
      vertex -115.95156800441056 -95.15899262454678 50
    endloop
  endfacet
  facet normal -0.7409511253549601 -0.6715589548470173 0.0
    outer loop
      vertex -115.95156800441056 -95.15899262454678 50
      vertex -106.06601717798215 -106.06601717798212 0
      vertex -106.06601717798215 -106.06601717798212 50
    endloop
  endfacet
  facet normal 0.0 0.0 -1.0
    outer loop
      vertex 0 0 0
      vertex -95.15899262454687 -115.9515680044105 0
      vertex -106.06601717798215 -106.06601717798212 0
    endloop
  endfacet
  facet normal 0.0 0.0 1.0
    outer loop
      vertex 0 0 50
      vertex -106.06601717798215 -106.06601717798212 50
      vertex -95.15899262454687 -115.9515680044105 50
    endloop
  endfacet
  facet normal -0.6715589548470181 -0.7409511253549593 0.0
    outer loop
      vertex -106.06601717798215 -106.06601717798212 0
      vertex -95.15899262454687 -115.9515680044105 0
      vertex -106.06601717798215 -106.06601717798212 50
    endloop
  endfacet
  facet normal -0.6715589548470181 -0.7409511253549593 0.0
    outer loop
      vertex -106.06601717798215 -106.06601717798212 50
      vertex -95.15899262454687 -115.9515680044105 0
      vertex -95.15899262454687 -115.9515680044105 50
    endloop
  endfacet
  facet normal 0.0 0.0 -1.0
    outer loop
      vertex 0 0 0
      vertex -83.33553495294032 -124.72044184538179 0
      vertex -95.15899262454687 -115.9515680044105 0
    endloop
  endfacet
  facet normal 0.0 0.0 1.0
    outer loop
      vertex 0 0 50
      vertex -95.15899262454687 -115.9515680044105 50
      vertex -83.33553495294032 -124.72044184538179 50
    endloop
  endfacet
  facet normal -0.5956993044924334 -0.803207531480645 0.0
    outer loop
      vertex -95.15899262454687 -115.9515680044105 0
      vertex -83.33553495294032 -124.72044184538179 0
      vertex -95.15899262454687 -115.9515680044105 50
    endloop
  endfacet
  facet normal -0.5956993044924334 -0.803207531480645 0.0
    outer loop
      vertex -95.15899262454687 -115.9515680044105 50
      vertex -83.33553495294032 -124.72044184538179 0
      vertex -83.33553495294032 -124.72044184538179 50
    endloop
  endfacet
  facet normal 0.0 0.0 -1.0
    outer loop
      vertex 0 0 0
      vertex -70.7095105238997 -132.28818965225324 0
      vertex -83.33553495294032 -124.72044184538179 0
    endloop
  endfacet
  facet normal 0.0 0.0 1.0
    outer loop
      vertex 0 0 50
      vertex -83.33553495294032 -124.72044184538179 50
      vertex -70.7095105238997 -132.28818965225324 50
    endloop
  endfacet
  facet normal -0.5141027441932227 -0.8577286100002715 0.0
    outer loop
      vertex -83.33553495294032 -124.72044184538179 0
      vertex -70.7095105238997 -132.28818965225324 0
      vertex -83.33553495294032 -124.72044184538179 50
    endloop
  endfacet
  facet normal -0.5141027441932227 -0.8577286100002715 0.0
    outer loop
      vertex -83.33553495294032 -124.72044184538179 50
      vertex -70.7095105238997 -132.28818965225324 0
      vertex -70.7095105238997 -132.28818965225324 50
    endloop
  endfacet
  facet normal 0.0 0.0 -1.0
    outer loop
      vertex 0 0 0
      vertex -57.40251485476355 -138.58192987669298 0
      vertex -70.7095105238997 -132.28818965225324 0
    endloop
  endfacet
  facet normal 0.0 0.0 1.0
    outer loop
      vertex 0 0 50
      vertex -70.7095105238997 -132.28818965225324 50
      vertex -57.40251485476355 -138.58192987669298 50
    endloop
  endfacet
  facet normal -0.4275550934302823 -0.9039892931234432 0.0
    outer loop
      vertex -70.7095105238997 -132.28818965225324 0
      vertex -57.40251485476355 -138.58192987669298 0
      vertex -70.7095105238997 -132.28818965225324 50
    endloop
  endfacet
  facet normal -0.4275550934302823 -0.9039892931234432 0.0
    outer loop
      vertex -70.7095105238997 -132.28818965225324 50
      vertex -57.40251485476355 -138.58192987669298 0
      vertex -57.40251485476355 -138.58192987669298 50
    endloop
  endfacet
  facet normal 0.0 0.0 -1.0
    outer loop
      vertex 0 0 0
      vertex -43.542701588169365 -143.54105035983133 0
      vertex -57.40251485476355 -138.58192987669298 0
    endloop
  endfacet
  facet normal 0.0 0.0 1.0
    outer loop
      vertex 0 0 50
      vertex -57.40251485476355 -138.58192987669298 50
      vertex -43.542701588169365 -143.54105035983133 50
    endloop
  endfacet
  facet normal -0.3368898533922204 -0.9415440651830207 0.0
    outer loop
      vertex -57.40251485476355 -138.58192987669298 0
      vertex -43.542701588169365 -143.54105035983133 0
      vertex -57.40251485476355 -138.58192987669298 50
    endloop
  endfacet
  facet normal -0.3368898533922204 -0.9415440651830207 0.0
    outer loop
      vertex -57.40251485476355 -138.58192987669298 50
      vertex -43.542701588169365 -143.54105035983133 0
      vertex -43.542701588169365 -143.54105035983133 50
    endloop
  endfacet
  facet normal 0.0 0.0 -1.0
    outer loop
      vertex 0 0 0
      vertex -29.2635483024193 -147.11779206048456 0
      vertex -43.542701588169365 -143.54105035983133 0
    endloop
  endfacet
  facet normal 0.0 0.0 1.0
    outer loop
      vertex 0 0 50
      vertex -43.542701588169365 -143.54105035983133 50
      vertex -29.2635483024193 -147.11779206048456 50
    endloop
  endfacet
  facet normal -0.24298017990326415 -0.9700312531945439 0.0
    outer loop
      vertex -43.542701588169365 -143.54105035983133 0
      vertex -29.2635483024193 -147.11779206048456 0
      vertex -43.542701588169365 -143.54105035983133 50
    endloop
  endfacet
  facet normal -0.24298017990326415 -0.9700312531945439 0.0
    outer loop
      vertex -43.542701588169365 -143.54105035983133 50
      vertex -29.2635483024193 -147.11779206048456 0
      vertex -29.2635483024193 -147.11779206048456 50
    endloop
  endfacet
  facet normal 0.0 0.0 -1.0
    outer loop
      vertex 0 0 0
      vertex -14.702571049434068 -149.27770900082953 0
      vertex -29.2635483024193 -147.11779206048456 0
    endloop
  endfacet
  facet normal 0.0 0.0 1.0
    outer loop
      vertex 0 0 50
      vertex -29.2635483024193 -147.11779206048456 50
      vertex -14.702571049434068 -149.27770900082953 50
    endloop
  endfacet
  facet normal -0.1467304744553613 -0.9891765099647811 0.0
    outer loop
      vertex -29.2635483024193 -147.11779206048456 0
      vertex -14.702571049434068 -149.27770900082953 0
      vertex -29.2635483024193 -147.11779206048456 50
    endloop
  endfacet
  facet normal -0.1467304744553613 -0.9891765099647811 0.0
    outer loop
      vertex -29.2635483024193 -147.11779206048456 50
      vertex -14.702571049434068 -149.27770900082953 0
      vertex -14.702571049434068 -149.27770900082953 50
    endloop
  endfacet
  facet normal 0.0 0.0 -1.0
    outer loop
      vertex 0 0 0
      vertex -2.7554552980815446e-14 -150.0 0
      vertex -14.702571049434068 -149.27770900082953 0
    endloop
  endfacet
  facet normal 0.0 0.0 1.0
    outer loop
      vertex 0 0 50
      vertex -14.702571049434068 -149.27770900082953 50
      vertex -2.7554552980815446e-14 -150.0 50
    endloop
  endfacet
  facet normal -0.04906767432741827 -0.9987954562051725 0.0
    outer loop
      vertex -14.702571049434068 -149.27770900082953 0
      vertex -2.7554552980815446e-14 -150.0 0
      vertex -14.702571049434068 -149.27770900082953 50
    endloop
  endfacet
  facet normal -0.04906767432741827 -0.9987954562051725 0.0
    outer loop
      vertex -14.702571049434068 -149.27770900082953 50
      vertex -2.7554552980815446e-14 -150.0 0
      vertex -2.7554552980815446e-14 -150.0 50
    endloop
  endfacet
  facet normal 0.0 -0.0 -1.0
    outer loop
      vertex 0 0 0
      vertex 14.702571049434013 -149.27770900082953 0
      vertex -2.7554552980815446e-14 -150.0 0
    endloop
  endfacet
  facet normal 0.0 0.0 1.0
    outer loop
      vertex 0 0 50
      vertex -2.7554552980815446e-14 -150.0 50
      vertex 14.702571049434013 -149.27770900082953 50
    endloop
  endfacet
  facet normal 0.049067674327418265 -0.9987954562051725 0.0
    outer loop
      vertex -2.7554552980815446e-14 -150.0 0
      vertex 14.702571049434013 -149.27770900082953 0
      vertex -2.7554552980815446e-14 -150.0 50
    endloop
  endfacet
  facet normal 0.049067674327418265 -0.9987954562051725 0.0
    outer loop
      vertex -2.7554552980815446e-14 -150.0 50
      vertex 14.702571049434013 -149.27770900082953 0
      vertex 14.702571049434013 -149.27770900082953 50
    endloop
  endfacet
  facet normal 0.0 0.0 -1.0
    outer loop
      vertex 0 0 0
      vertex 29.263548302419245 -147.11779206048456 0
      vertex 14.702571049434013 -149.27770900082953 0
    endloop
  endfacet
  facet normal 0.0 0.0 1.0
    outer loop
      vertex 0 0 50
      vertex 14.702571049434013 -149.27770900082953 50
      vertex 29.263548302419245 -147.11779206048456 50
    endloop
  endfacet
  facet normal 0.14673047445536128 -0.989176509964781 0.0
    outer loop
      vertex 14.702571049434013 -149.27770900082953 0
      vertex 29.263548302419245 -147.11779206048456 0
      vertex 14.702571049434013 -149.27770900082953 50
    endloop
  endfacet
  facet normal 0.14673047445536128 -0.989176509964781 0.0
    outer loop
      vertex 14.702571049434013 -149.27770900082953 50
      vertex 29.263548302419245 -147.11779206048456 0
      vertex 29.263548302419245 -147.11779206048456 50
    endloop
  endfacet
  facet normal 0.0 0.0 -1.0
    outer loop
      vertex 0 0 0
      vertex 43.54270158816931 -143.54105035983133 0
      vertex 29.263548302419245 -147.11779206048456 0
    endloop
  endfacet
  facet normal 0.0 0.0 1.0
    outer loop
      vertex 0 0 50
      vertex 29.263548302419245 -147.11779206048456 50
      vertex 43.54270158816931 -143.54105035983133 50
    endloop
  endfacet
  facet normal 0.24298017990326423 -0.9700312531945439 0.0
    outer loop
      vertex 29.263548302419245 -147.11779206048456 0
      vertex 43.54270158816931 -143.54105035983133 0
      vertex 29.263548302419245 -147.11779206048456 50
    endloop
  endfacet
  facet normal 0.24298017990326423 -0.9700312531945439 0.0
    outer loop
      vertex 29.263548302419245 -147.11779206048456 50
      vertex 43.54270158816931 -143.54105035983133 0
      vertex 43.54270158816931 -143.54105035983133 50
    endloop
  endfacet
  facet normal 0.0 0.0 -1.0
    outer loop
      vertex 0 0 0
      vertex 57.4025148547635 -138.58192987669298 0
      vertex 43.54270158816931 -143.54105035983133 0
    endloop
  endfacet
  facet normal 0.0 0.0 1.0
    outer loop
      vertex 0 0 50
      vertex 43.54270158816931 -143.54105035983133 50
      vertex 57.4025148547635 -138.58192987669298 50
    endloop
  endfacet
  facet normal 0.3368898533922202 -0.9415440651830207 0.0
    outer loop
      vertex 43.54270158816931 -143.54105035983133 0
      vertex 57.4025148547635 -138.58192987669298 0
      vertex 43.54270158816931 -143.54105035983133 50
    endloop
  endfacet
  facet normal 0.3368898533922202 -0.9415440651830207 0.0
    outer loop
      vertex 43.54270158816931 -143.54105035983133 50
      vertex 57.4025148547635 -138.58192987669298 0
      vertex 57.4025148547635 -138.58192987669298 50
    endloop
  endfacet
  facet normal 0.0 0.0 -1.0
    outer loop
      vertex 0 0 0
      vertex 70.70951052389964 -132.28818965225327 0
      vertex 57.4025148547635 -138.58192987669298 0
    endloop
  endfacet
  facet normal 0.0 0.0 1.0
    outer loop
      vertex 0 0 50
      vertex 57.4025148547635 -138.58192987669298 50
      vertex 70.70951052389964 -132.28818965225327 50
    endloop
  endfacet
  facet normal 0.4275550934302809 -0.9039892931234439 0.0
    outer loop
      vertex 57.4025148547635 -138.58192987669298 0
      vertex 70.70951052389964 -132.28818965225327 0
      vertex 57.4025148547635 -138.58192987669298 50
    endloop
  endfacet
  facet normal 0.4275550934302809 -0.9039892931234439 0.0
    outer loop
      vertex 57.4025148547635 -138.58192987669298 50
      vertex 70.70951052389964 -132.28818965225327 0
      vertex 70.70951052389964 -132.28818965225327 50
    endloop
  endfacet
  facet normal 0.0 0.0 -1.0
    outer loop
      vertex 0 0 0
      vertex 83.33553495294028 -124.72044184538181 0
      vertex 70.70951052389964 -132.28818965225327 0
    endloop
  endfacet
  facet normal 0.0 0.0 1.0
    outer loop
      vertex 0 0 50
      vertex 70.70951052389964 -132.28818965225327 50
      vertex 83.33553495294028 -124.72044184538181 50
    endloop
  endfacet
  facet normal 0.5141027441932223 -0.8577286100002717 0.0
    outer loop
      vertex 70.70951052389964 -132.28818965225327 0
      vertex 83.33553495294028 -124.72044184538181 0
      vertex 70.70951052389964 -132.28818965225327 50
    endloop
  endfacet
  facet normal 0.5141027441932223 -0.8577286100002717 0.0
    outer loop
      vertex 70.70951052389964 -132.28818965225327 50
      vertex 83.33553495294028 -124.72044184538181 0
      vertex 83.33553495294028 -124.72044184538181 50
    endloop
  endfacet
  facet normal 0.0 0.0 -1.0
    outer loop
      vertex 0 0 0
      vertex 95.15899262454684 -115.95156800441053 0
      vertex 83.33553495294028 -124.72044184538181 0
    endloop
  endfacet
  facet normal 0.0 0.0 1.0
    outer loop
      vertex 0 0 50
      vertex 83.33553495294028 -124.72044184538181 50
      vertex 95.15899262454684 -115.95156800441053 50
    endloop
  endfacet
  facet normal 0.5956993044924328 -0.8032075314806454 0.0
    outer loop
      vertex 83.33553495294028 -124.72044184538181 0
      vertex 95.15899262454684 -115.95156800441053 0
      vertex 83.33553495294028 -124.72044184538181 50
    endloop
  endfacet
  facet normal 0.5956993044924328 -0.8032075314806454 0.0
    outer loop
      vertex 83.33553495294028 -124.72044184538181 50
      vertex 95.15899262454684 -115.95156800441053 0
      vertex 95.15899262454684 -115.95156800441053 50
    endloop
  endfacet
  facet normal 0.0 0.0 -1.0
    outer loop
      vertex 0 0 0
      vertex 106.0660171779821 -106.06601717798215 0
      vertex 95.15899262454684 -115.95156800441053 0
    endloop
  endfacet
  facet normal 0.0 0.0 1.0
    outer loop
      vertex 0 0 50
      vertex 95.15899262454684 -115.95156800441053 50
      vertex 106.0660171779821 -106.06601717798215 50
    endloop
  endfacet
  facet normal 0.6715589548470187 -0.7409511253549588 0.0
    outer loop
      vertex 95.15899262454684 -115.95156800441053 0
      vertex 106.0660171779821 -106.06601717798215 0
      vertex 95.15899262454684 -115.95156800441053 50
    endloop
  endfacet
  facet normal 0.6715589548470187 -0.7409511253549588 0.0
    outer loop
      vertex 95.15899262454684 -115.95156800441053 50
      vertex 106.0660171779821 -106.06601717798215 0
      vertex 106.0660171779821 -106.06601717798215 50
    endloop
  endfacet
  facet normal 0.0 0.0 -1.0
    outer loop
      vertex 0 0 0
      vertex 115.9515680044105 -95.15899262454688 0
      vertex 106.0660171779821 -106.06601717798215 0
    endloop
  endfacet
  facet normal 0.0 0.0 1.0
    outer loop
      vertex 0 0 50
      vertex 106.0660171779821 -106.06601717798215 50
      vertex 115.9515680044105 -95.15899262454688 50
    endloop
  endfacet
  facet normal 0.7409511253549583 -0.6715589548470192 0.0
    outer loop
      vertex 106.0660171779821 -106.06601717798215 0
      vertex 115.9515680044105 -95.15899262454688 0
      vertex 106.0660171779821 -106.06601717798215 50
    endloop
  endfacet
  facet normal 0.7409511253549583 -0.6715589548470192 0.0
    outer loop
      vertex 106.0660171779821 -106.06601717798215 50
      vertex 115.9515680044105 -95.15899262454688 0
      vertex 115.9515680044105 -95.15899262454688 50
    endloop
  endfacet
  facet normal 0.0 0.0 -1.0
    outer loop
      vertex 0 0 0
      vertex 124.72044184538179 -83.33553495294032 0
      vertex 115.9515680044105 -95.15899262454688 0
    endloop
  endfacet
  facet normal 0.0 0.0 1.0
    outer loop
      vertex 0 0 50
      vertex 115.9515680044105 -95.15899262454688 50
      vertex 124.72044184538179 -83.33553495294032 50
    endloop
  endfacet
  facet normal 0.8032075314806454 -0.5956993044924328 0.0
    outer loop
      vertex 115.9515680044105 -95.15899262454688 0
      vertex 124.72044184538179 -83.33553495294032 0
      vertex 115.9515680044105 -95.15899262454688 50
    endloop
  endfacet
  facet normal 0.8032075314806454 -0.5956993044924328 0.0
    outer loop
      vertex 115.9515680044105 -95.15899262454688 50
      vertex 124.72044184538179 -83.33553495294032 0
      vertex 124.72044184538179 -83.33553495294032 50
    endloop
  endfacet
  facet normal 0.0 0.0 -1.0
    outer loop
      vertex 0 0 0
      vertex 132.28818965225324 -70.7095105238997 0
      vertex 124.72044184538179 -83.33553495294032 0
    endloop
  endfacet
  facet normal 0.0 0.0 1.0
    outer loop
      vertex 0 0 50
      vertex 124.72044184538179 -83.33553495294032 50
      vertex 132.28818965225324 -70.7095105238997 50
    endloop
  endfacet
  facet normal 0.8577286100002715 -0.5141027441932227 0.0
    outer loop
      vertex 124.72044184538179 -83.33553495294032 0
      vertex 132.28818965225324 -70.7095105238997 0
      vertex 124.72044184538179 -83.33553495294032 50
    endloop
  endfacet
  facet normal 0.8577286100002715 -0.5141027441932227 0.0
    outer loop
      vertex 124.72044184538179 -83.33553495294032 50
      vertex 132.28818965225324 -70.7095105238997 0
      vertex 132.28818965225324 -70.7095105238997 50
    endloop
  endfacet
  facet normal 0.0 0.0 -1.0
    outer loop
      vertex 0 0 0
      vertex 138.58192987669298 -57.40251485476356 0
      vertex 132.28818965225324 -70.7095105238997 0
    endloop
  endfacet
  facet normal 0.0 0.0 1.0
    outer loop
      vertex 0 0 50
      vertex 132.28818965225324 -70.7095105238997 50
      vertex 138.58192987669298 -57.40251485476356 50
    endloop
  endfacet
  facet normal 0.9039892931234432 -0.42755509343028253 0.0
    outer loop
      vertex 132.28818965225324 -70.7095105238997 0
      vertex 138.58192987669298 -57.40251485476356 0
      vertex 132.28818965225324 -70.7095105238997 50
    endloop
  endfacet
  facet normal 0.9039892931234432 -0.42755509343028253 0.0
    outer loop
      vertex 132.28818965225324 -70.7095105238997 50
      vertex 138.58192987669298 -57.40251485476356 0
      vertex 138.58192987669298 -57.40251485476356 50
    endloop
  endfacet
  facet normal 0.0 0.0 -1.0
    outer loop
      vertex 0 0 0
      vertex 143.54105035983133 -43.54270158816937 0
      vertex 138.58192987669298 -57.40251485476356 0
    endloop
  endfacet
  facet normal 0.0 0.0 1.0
    outer loop
      vertex 0 0 50
      vertex 138.58192987669298 -57.40251485476356 50
      vertex 143.54105035983133 -43.54270158816937 50
    endloop
  endfacet
  facet normal 0.9415440651830207 -0.3368898533922204 0.0
    outer loop
      vertex 138.58192987669298 -57.40251485476356 0
      vertex 143.54105035983133 -43.54270158816937 0
      vertex 138.58192987669298 -57.40251485476356 50
    endloop
  endfacet
  facet normal 0.9415440651830207 -0.3368898533922204 0.0
    outer loop
      vertex 138.58192987669298 -57.40251485476356 50
      vertex 143.54105035983133 -43.54270158816937 0
      vertex 143.54105035983133 -43.54270158816937 50
    endloop
  endfacet
  facet normal 0.0 0.0 -1.0
    outer loop
      vertex 0 0 0
      vertex 147.11779206048456 -29.26354830241931 0
      vertex 143.54105035983133 -43.54270158816937 0
    endloop
  endfacet
  facet normal 0.0 0.0 1.0
    outer loop
      vertex 0 0 50
      vertex 143.54105035983133 -43.54270158816937 50
      vertex 147.11779206048456 -29.26354830241931 50
    endloop
  endfacet
  facet normal 0.9700312531945439 -0.24298017990326423 0.0
    outer loop
      vertex 143.54105035983133 -43.54270158816937 0
      vertex 147.11779206048456 -29.26354830241931 0
      vertex 143.54105035983133 -43.54270158816937 50
    endloop
  endfacet
  facet normal 0.9700312531945439 -0.24298017990326423 0.0
    outer loop
      vertex 143.54105035983133 -43.54270158816937 50
      vertex 147.11779206048456 -29.26354830241931 0
      vertex 147.11779206048456 -29.26354830241931 50
    endloop
  endfacet
  facet normal 0.0 0.0 -1.0
    outer loop
      vertex 0 0 0
      vertex 149.27770900082953 -14.702571049434075 0
      vertex 147.11779206048456 -29.26354830241931 0
    endloop
  endfacet
  facet normal 0.0 0.0 1.0
    outer loop
      vertex 0 0 50
      vertex 147.11779206048456 -29.26354830241931 50
      vertex 149.27770900082953 -14.702571049434075 50
    endloop
  endfacet
  facet normal 0.989176509964781 -0.14673047445536128 0.0
    outer loop
      vertex 147.11779206048456 -29.26354830241931 0
      vertex 149.27770900082953 -14.702571049434075 0
      vertex 147.11779206048456 -29.26354830241931 50
    endloop
  endfacet
  facet normal 0.989176509964781 -0.14673047445536128 0.0
    outer loop
      vertex 147.11779206048456 -29.26354830241931 50
      vertex 149.27770900082953 -14.702571049434075 0
      vertex 149.27770900082953 -14.702571049434075 50
    endloop
  endfacet
  facet normal 0.0 0.0 -1.0
    outer loop
      vertex 0 0 0
      vertex 150.0 -3.6739403974420595e-14 0
      vertex 149.27770900082953 -14.702571049434075 0
    endloop
  endfacet
  facet normal 0.0 0.0 1.0
    outer loop
      vertex 0 0 50
      vertex 149.27770900082953 -14.702571049434075 50
      vertex 150.0 -3.6739403974420595e-14 50
    endloop
  endfacet
  facet normal 0.9987954562051725 -0.04906767432741827 0.0
    outer loop
      vertex 149.27770900082953 -14.702571049434075 0
      vertex 150.0 -3.6739403974420595e-14 0
      vertex 149.27770900082953 -14.702571049434075 50
    endloop
  endfacet
  facet normal 0.9987954562051725 -0.04906767432741827 0.0
    outer loop
      vertex 149.27770900082953 -14.702571049434075 50
      vertex 150.0 -3.6739403974420595e-14 0
      vertex 150.0 -3.6739403974420595e-14 50
    endloop
  endfacet
  facet normal 0.0 0.0 -1.0
    outer loop
      vertex 0 0 50
      vertex 29.423558412096913 5.852709660483847 50
      vertex 30.0 0.0 50
    endloop
  endfacet
  facet normal 0.0 0.0 1.0
    outer loop
      vertex 0 0 70
      vertex 30.0 0.0 70
      vertex 29.423558412096913 5.852709660483847 70
    endloop
  endfacet
  facet normal 0.9951847266721968 0.09801714032956071 -0.0
    outer loop
      vertex 30.0 0.0 50
      vertex 29.423558412096913 5.852709660483847 50
      vertex 30.0 0.0 70
    endloop
  endfacet
  facet normal 0.9951847266721968 0.09801714032956071 0.0
    outer loop
      vertex 30.0 0.0 70
      vertex 29.423558412096913 5.852709660483847 50
      vertex 29.423558412096913 5.852709660483847 70
    endloop
  endfacet
  facet normal 0.0 0.0 -1.0
    outer loop
      vertex 0 0 50
      vertex 27.716385975338603 11.480502970952694 50
      vertex 29.423558412096913 5.852709660483847 50
    endloop
  endfacet
  facet normal 0.0 0.0 1.0
    outer loop
      vertex 0 0 70
      vertex 29.423558412096913 5.852709660483847 70
      vertex 27.716385975338603 11.480502970952694 70
    endloop
  endfacet
  facet normal 0.956940335732209 0.2902846772544621 -0.0
    outer loop
      vertex 29.423558412096913 5.852709660483847 50
      vertex 27.716385975338603 11.480502970952694 50
      vertex 29.423558412096913 5.852709660483847 70
    endloop
  endfacet
  facet normal 0.956940335732209 0.2902846772544621 0.0
    outer loop
      vertex 29.423558412096913 5.852709660483847 70
      vertex 27.716385975338603 11.480502970952694 50
      vertex 27.716385975338603 11.480502970952694 70
    endloop
  endfacet
  facet normal 0.0 0.0 -1.0
    outer loop
      vertex 0 0 50
      vertex 24.944088369076358 16.667106990588067 50
      vertex 27.716385975338603 11.480502970952694 50
    endloop
  endfacet
  facet normal 0.0 0.0 1.0
    outer loop
      vertex 0 0 70
      vertex 27.716385975338603 11.480502970952694 70
      vertex 24.944088369076358 16.667106990588067 70
    endloop
  endfacet
  facet normal 0.881921264348355 0.4713967368259977 -0.0
    outer loop
      vertex 27.716385975338603 11.480502970952694 50
      vertex 24.944088369076358 16.667106990588067 50
      vertex 27.716385975338603 11.480502970952694 70
    endloop
  endfacet
  facet normal 0.881921264348355 0.4713967368259977 0.0
    outer loop
      vertex 27.716385975338603 11.480502970952694 70
      vertex 24.944088369076358 16.667106990588067 50
      vertex 24.944088369076358 16.667106990588067 70
    endloop
  endfacet
  facet normal 0.0 0.0 -1.0
    outer loop
      vertex 0 0 50
      vertex 21.213203435596427 21.213203435596423 50
      vertex 24.944088369076358 16.667106990588067 50
    endloop
  endfacet
  facet normal 0.0 0.0 1.0
    outer loop
      vertex 0 0 70
      vertex 24.944088369076358 16.667106990588067 70
      vertex 21.213203435596427 21.213203435596423 70
    endloop
  endfacet
  facet normal 0.7730104533627368 0.6343932841636457 -0.0
    outer loop
      vertex 24.944088369076358 16.667106990588067 50
      vertex 21.213203435596427 21.213203435596423 50
      vertex 24.944088369076358 16.667106990588067 70
    endloop
  endfacet
  facet normal 0.7730104533627368 0.6343932841636457 0.0
    outer loop
      vertex 24.944088369076358 16.667106990588067 70
      vertex 21.213203435596427 21.213203435596423 50
      vertex 21.213203435596427 21.213203435596423 70
    endloop
  endfacet
  facet normal 0.0 0.0 -1.0
    outer loop
      vertex 0 0 50
      vertex 16.667106990588067 24.944088369076358 50
      vertex 21.213203435596427 21.213203435596423 50
    endloop
  endfacet
  facet normal 0.0 0.0 1.0
    outer loop
      vertex 0 0 70
      vertex 21.213203435596427 21.213203435596423 70
      vertex 16.667106990588067 24.944088369076358 70
    endloop
  endfacet
  facet normal 0.6343932841636458 0.7730104533627367 -0.0
    outer loop
      vertex 21.213203435596427 21.213203435596423 50
      vertex 16.667106990588067 24.944088369076358 50
      vertex 21.213203435596427 21.213203435596423 70
    endloop
  endfacet
  facet normal 0.6343932841636458 0.7730104533627367 0.0
    outer loop
      vertex 21.213203435596427 21.213203435596423 70
      vertex 16.667106990588067 24.944088369076358 50
      vertex 16.667106990588067 24.944088369076358 70
    endloop
  endfacet
  facet normal 0.0 0.0 -1.0
    outer loop
      vertex 0 0 50
      vertex 11.480502970952696 27.716385975338603 50
      vertex 16.667106990588067 24.944088369076358 50
    endloop
  endfacet
  facet normal 0.0 0.0 1.0
    outer loop
      vertex 0 0 70
      vertex 16.667106990588067 24.944088369076358 70
      vertex 11.480502970952696 27.716385975338603 70
    endloop
  endfacet
  facet normal 0.4713967368259978 0.8819212643483549 -0.0
    outer loop
      vertex 16.667106990588067 24.944088369076358 50
      vertex 11.480502970952696 27.716385975338603 50
      vertex 16.667106990588067 24.944088369076358 70
    endloop
  endfacet
  facet normal 0.4713967368259978 0.8819212643483549 0.0
    outer loop
      vertex 16.667106990588067 24.944088369076358 70
      vertex 11.480502970952696 27.716385975338603 50
      vertex 11.480502970952696 27.716385975338603 70
    endloop
  endfacet
  facet normal 0.0 0.0 -1.0
    outer loop
      vertex 0 0 50
      vertex 5.85270966048385 29.423558412096913 50
      vertex 11.480502970952696 27.716385975338603 50
    endloop
  endfacet
  facet normal 0.0 0.0 1.0
    outer loop
      vertex 0 0 70
      vertex 11.480502970952696 27.716385975338603 70
      vertex 5.85270966048385 29.423558412096913 70
    endloop
  endfacet
  facet normal 0.29028467725446216 0.956940335732209 -0.0
    outer loop
      vertex 11.480502970952696 27.716385975338603 50
      vertex 5.85270966048385 29.423558412096913 50
      vertex 11.480502970952696 27.716385975338603 70
    endloop
  endfacet
  facet normal 0.29028467725446216 0.956940335732209 0.0
    outer loop
      vertex 11.480502970952696 27.716385975338603 70
      vertex 5.85270966048385 29.423558412096913 50
      vertex 5.85270966048385 29.423558412096913 70
    endloop
  endfacet
  facet normal 0.0 0.0 -1.0
    outer loop
      vertex 0 0 50
      vertex 1.83697019872103e-15 30.0 50
      vertex 5.85270966048385 29.423558412096913 50
    endloop
  endfacet
  facet normal 0.0 0.0 1.0
    outer loop
      vertex 0 0 70
      vertex 5.85270966048385 29.423558412096913 70
      vertex 1.83697019872103e-15 30.0 70
    endloop
  endfacet
  facet normal 0.0980171403295607 0.9951847266721968 -0.0
    outer loop
      vertex 5.85270966048385 29.423558412096913 50
      vertex 1.83697019872103e-15 30.0 50
      vertex 5.85270966048385 29.423558412096913 70
    endloop
  endfacet
  facet normal 0.0980171403295607 0.9951847266721968 0.0
    outer loop
      vertex 5.85270966048385 29.423558412096913 70
      vertex 1.83697019872103e-15 30.0 50
      vertex 1.83697019872103e-15 30.0 70
    endloop
  endfacet
  facet normal 0.0 0.0 -1.0
    outer loop
      vertex 0 0 50
      vertex -5.852709660483846 29.423558412096913 50
      vertex 1.83697019872103e-15 30.0 50
    endloop
  endfacet
  facet normal 0.0 -0.0 1.0
    outer loop
      vertex 0 0 70
      vertex 1.83697019872103e-15 30.0 70
      vertex -5.852709660483846 29.423558412096913 70
    endloop
  endfacet
  facet normal -0.0980171403295607 0.9951847266721968 0.0
    outer loop
      vertex 1.83697019872103e-15 30.0 50
      vertex -5.852709660483846 29.423558412096913 50
      vertex 1.83697019872103e-15 30.0 70
    endloop
  endfacet
  facet normal -0.0980171403295607 0.9951847266721968 0.0
    outer loop
      vertex 1.83697019872103e-15 30.0 70
      vertex -5.852709660483846 29.423558412096913 50
      vertex -5.852709660483846 29.423558412096913 70
    endloop
  endfacet
  facet normal 0.0 0.0 -1.0
    outer loop
      vertex 0 0 50
      vertex -11.480502970952692 27.716385975338603 50
      vertex -5.852709660483846 29.423558412096913 50
    endloop
  endfacet
  facet normal 0.0 0.0 1.0
    outer loop
      vertex 0 0 70
      vertex -5.852709660483846 29.423558412096913 70
      vertex -11.480502970952692 27.716385975338603 70
    endloop
  endfacet
  facet normal -0.29028467725446216 0.956940335732209 0.0
    outer loop
      vertex -5.852709660483846 29.423558412096913 50
      vertex -11.480502970952692 27.716385975338603 50
      vertex -5.852709660483846 29.423558412096913 70
    endloop
  endfacet
  facet normal -0.29028467725446216 0.956940335732209 0.0
    outer loop
      vertex -5.852709660483846 29.423558412096913 70
      vertex -11.480502970952692 27.716385975338603 50
      vertex -11.480502970952692 27.716385975338603 70
    endloop
  endfacet
  facet normal 0.0 0.0 -1.0
    outer loop
      vertex 0 0 50
      vertex -16.66710699058806 24.94408836907636 50
      vertex -11.480502970952692 27.716385975338603 50
    endloop
  endfacet
  facet normal 0.0 0.0 1.0
    outer loop
      vertex 0 0 70
      vertex -11.480502970952692 27.716385975338603 70
      vertex -16.66710699058806 24.94408836907636 70
    endloop
  endfacet
  facet normal -0.4713967368259976 0.881921264348355 0.0
    outer loop
      vertex -11.480502970952692 27.716385975338603 50
      vertex -16.66710699058806 24.94408836907636 50
      vertex -11.480502970952692 27.716385975338603 70
    endloop
  endfacet
  facet normal -0.4713967368259976 0.881921264348355 0.0
    outer loop
      vertex -11.480502970952692 27.716385975338603 70
      vertex -16.66710699058806 24.94408836907636 50
      vertex -16.66710699058806 24.94408836907636 70
    endloop
  endfacet
  facet normal 0.0 0.0 -1.0
    outer loop
      vertex 0 0 50
      vertex -21.213203435596423 21.213203435596427 50
      vertex -16.66710699058806 24.94408836907636 50
    endloop
  endfacet
  facet normal 0.0 0.0 1.0
    outer loop
      vertex 0 0 70
      vertex -16.66710699058806 24.94408836907636 70
      vertex -21.213203435596423 21.213203435596427 70
    endloop
  endfacet
  facet normal -0.6343932841636455 0.7730104533627369 0.0
    outer loop
      vertex -16.66710699058806 24.94408836907636 50
      vertex -21.213203435596423 21.213203435596427 50
      vertex -16.66710699058806 24.94408836907636 70
    endloop
  endfacet
  facet normal -0.6343932841636455 0.7730104533627369 0.0
    outer loop
      vertex -16.66710699058806 24.94408836907636 70
      vertex -21.213203435596423 21.213203435596427 50
      vertex -21.213203435596423 21.213203435596427 70
    endloop
  endfacet
  facet normal 0.0 0.0 -1.0
    outer loop
      vertex 0 0 50
      vertex -24.94408836907636 16.667106990588067 50
      vertex -21.213203435596423 21.213203435596427 50
    endloop
  endfacet
  facet normal 0.0 0.0 1.0
    outer loop
      vertex 0 0 70
      vertex -21.213203435596423 21.213203435596427 70
      vertex -24.94408836907636 16.667106990588067 70
    endloop
  endfacet
  facet normal -0.7730104533627364 0.6343932841636462 0.0
    outer loop
      vertex -21.213203435596423 21.213203435596427 50
      vertex -24.94408836907636 16.667106990588067 50
      vertex -21.213203435596423 21.213203435596427 70
    endloop
  endfacet
  facet normal -0.7730104533627364 0.6343932841636462 0.0
    outer loop
      vertex -21.213203435596423 21.213203435596427 70
      vertex -24.94408836907636 16.667106990588067 50
      vertex -24.94408836907636 16.667106990588067 70
    endloop
  endfacet
  facet normal 0.0 0.0 -1.0
    outer loop
      vertex 0 0 50
      vertex -27.716385975338603 11.480502970952697 50
      vertex -24.94408836907636 16.667106990588067 50
    endloop
  endfacet
  facet normal 0.0 0.0 1.0
    outer loop
      vertex 0 0 70
      vertex -24.94408836907636 16.667106990588067 70
      vertex -27.716385975338603 11.480502970952697 70
    endloop
  endfacet
  facet normal -0.8819212643483552 0.4713967368259975 0.0
    outer loop
      vertex -24.94408836907636 16.667106990588067 50
      vertex -27.716385975338603 11.480502970952697 50
      vertex -24.94408836907636 16.667106990588067 70
    endloop
  endfacet
  facet normal -0.8819212643483552 0.4713967368259975 0.0
    outer loop
      vertex -24.94408836907636 16.667106990588067 70
      vertex -27.716385975338603 11.480502970952697 50
      vertex -27.716385975338603 11.480502970952697 70
    endloop
  endfacet
  facet normal 0.0 0.0 -1.0
    outer loop
      vertex 0 0 50
      vertex -29.423558412096913 5.852709660483859 50
      vertex -27.716385975338603 11.480502970952697 50
    endloop
  endfacet
  facet normal 0.0 0.0 1.0
    outer loop
      vertex 0 0 70
      vertex -27.716385975338603 11.480502970952697 70
      vertex -29.423558412096913 5.852709660483859 70
    endloop
  endfacet
  facet normal -0.9569403357322087 0.29028467725446244 0.0
    outer loop
      vertex -27.716385975338603 11.480502970952697 50
      vertex -29.423558412096913 5.852709660483859 50
      vertex -27.716385975338603 11.480502970952697 70
    endloop
  endfacet
  facet normal -0.9569403357322087 0.29028467725446244 0.0
    outer loop
      vertex -27.716385975338603 11.480502970952697 70
      vertex -29.423558412096913 5.852709660483859 50
      vertex -29.423558412096913 5.852709660483859 70
    endloop
  endfacet
  facet normal 0.0 0.0 -1.0
    outer loop
      vertex 0 0 50
      vertex -30.0 3.67394039744206e-15 50
      vertex -29.423558412096913 5.852709660483859 50
    endloop
  endfacet
  facet normal 0.0 0.0 1.0
    outer loop
      vertex 0 0 70
      vertex -29.423558412096913 5.852709660483859 70
      vertex -30.0 3.67394039744206e-15 70
    endloop
  endfacet
  facet normal -0.9951847266721969 0.09801714032956059 0.0
    outer loop
      vertex -29.423558412096913 5.852709660483859 50
      vertex -30.0 3.67394039744206e-15 50
      vertex -29.423558412096913 5.852709660483859 70
    endloop
  endfacet
  facet normal -0.9951847266721969 0.09801714032956059 0.0
    outer loop
      vertex -29.423558412096913 5.852709660483859 70
      vertex -30.0 3.67394039744206e-15 50
      vertex -30.0 3.67394039744206e-15 70
    endloop
  endfacet
  facet normal -0.0 0.0 -1.0
    outer loop
      vertex 0 0 50
      vertex -29.423558412096913 -5.852709660483851 50
      vertex -30.0 3.67394039744206e-15 50
    endloop
  endfacet
  facet normal 0.0 0.0 1.0
    outer loop
      vertex 0 0 70
      vertex -30.0 3.67394039744206e-15 70
      vertex -29.423558412096913 -5.852709660483851 70
    endloop
  endfacet
  facet normal -0.9951847266721969 -0.09801714032956059 0.0
    outer loop
      vertex -30.0 3.67394039744206e-15 50
      vertex -29.423558412096913 -5.852709660483851 50
      vertex -30.0 3.67394039744206e-15 70
    endloop
  endfacet
  facet normal -0.9951847266721969 -0.09801714032956059 0.0
    outer loop
      vertex -30.0 3.67394039744206e-15 70
      vertex -29.423558412096913 -5.852709660483851 50
      vertex -29.423558412096913 -5.852709660483851 70
    endloop
  endfacet
  facet normal 0.0 0.0 -1.0
    outer loop
      vertex 0 0 50
      vertex -27.716385975338607 -11.48050297095269 50
      vertex -29.423558412096913 -5.852709660483851 50
    endloop
  endfacet
  facet normal 0.0 0.0 1.0
    outer loop
      vertex 0 0 70
      vertex -29.423558412096913 -5.852709660483851 70
      vertex -27.716385975338607 -11.48050297095269 70
    endloop
  endfacet
  facet normal -0.9569403357322089 -0.2902846772544619 0.0
    outer loop
      vertex -29.423558412096913 -5.852709660483851 50
      vertex -27.716385975338607 -11.48050297095269 50
      vertex -29.423558412096913 -5.852709660483851 70
    endloop
  endfacet
  facet normal -0.9569403357322089 -0.2902846772544619 0.0
    outer loop
      vertex -29.423558412096913 -5.852709660483851 70
      vertex -27.716385975338607 -11.48050297095269 50
      vertex -27.716385975338607 -11.48050297095269 70
    endloop
  endfacet
  facet normal 0.0 0.0 -1.0
    outer loop
      vertex 0 0 50
      vertex -24.944088369076365 -16.66710699058806 50
      vertex -27.716385975338607 -11.48050297095269 50
    endloop
  endfacet
  facet normal 0.0 0.0 1.0
    outer loop
      vertex 0 0 70
      vertex -27.716385975338607 -11.48050297095269 70
      vertex -24.944088369076365 -16.66710699058806 70
    endloop
  endfacet
  facet normal -0.8819212643483552 -0.4713967368259975 0.0
    outer loop
      vertex -27.716385975338607 -11.48050297095269 50
      vertex -24.944088369076365 -16.66710699058806 50
      vertex -27.716385975338607 -11.48050297095269 70
    endloop
  endfacet
  facet normal -0.8819212643483552 -0.4713967368259975 0.0
    outer loop
      vertex -27.716385975338607 -11.48050297095269 70
      vertex -24.944088369076365 -16.66710699058806 50
      vertex -24.944088369076365 -16.66710699058806 70
    endloop
  endfacet
  facet normal 0.0 0.0 -1.0
    outer loop
      vertex 0 0 50
      vertex -21.21320343559643 -21.213203435596423 50
      vertex -24.944088369076365 -16.66710699058806 50
    endloop
  endfacet
  facet normal 0.0 0.0 1.0
    outer loop
      vertex 0 0 70
      vertex -24.944088369076365 -16.66710699058806 70
      vertex -21.21320343559643 -21.213203435596423 70
    endloop
  endfacet
  facet normal -0.7730104533627369 -0.6343932841636455 0.0
    outer loop
      vertex -24.944088369076365 -16.66710699058806 50
      vertex -21.21320343559643 -21.213203435596423 50
      vertex -24.944088369076365 -16.66710699058806 70
    endloop
  endfacet
  facet normal -0.7730104533627369 -0.6343932841636455 0.0
    outer loop
      vertex -24.944088369076365 -16.66710699058806 70
      vertex -21.21320343559643 -21.213203435596423 50
      vertex -21.21320343559643 -21.213203435596423 70
    endloop
  endfacet
  facet normal 0.0 0.0 -1.0
    outer loop
      vertex 0 0 50
      vertex -16.667106990588067 -24.944088369076358 50
      vertex -21.21320343559643 -21.213203435596423 50
    endloop
  endfacet
  facet normal 0.0 0.0 1.0
    outer loop
      vertex 0 0 70
      vertex -21.21320343559643 -21.213203435596423 70
      vertex -16.667106990588067 -24.944088369076358 70
    endloop
  endfacet
  facet normal -0.6343932841636455 -0.7730104533627369 0.0
    outer loop
      vertex -21.21320343559643 -21.213203435596423 50
      vertex -16.667106990588067 -24.944088369076358 50
      vertex -21.21320343559643 -21.213203435596423 70
    endloop
  endfacet
  facet normal -0.6343932841636455 -0.7730104533627369 0.0
    outer loop
      vertex -21.21320343559643 -21.213203435596423 70
      vertex -16.667106990588067 -24.944088369076358 50
      vertex -16.667106990588067 -24.944088369076358 70
    endloop
  endfacet
  facet normal 0.0 0.0 -1.0
    outer loop
      vertex 0 0 50
      vertex -11.48050297095271 -27.716385975338596 50
      vertex -16.667106990588067 -24.944088369076358 50
    endloop
  endfacet
  facet normal 0.0 0.0 1.0
    outer loop
      vertex 0 0 70
      vertex -16.667106990588067 -24.944088369076358 70
      vertex -11.48050297095271 -27.716385975338596 70
    endloop
  endfacet
  facet normal -0.47139673682599786 -0.8819212643483548 0.0
    outer loop
      vertex -16.667106990588067 -24.944088369076358 50
      vertex -11.48050297095271 -27.716385975338596 50
      vertex -16.667106990588067 -24.944088369076358 70
    endloop
  endfacet
  facet normal -0.47139673682599786 -0.8819212643483548 0.0
    outer loop
      vertex -16.667106990588067 -24.944088369076358 70
      vertex -11.48050297095271 -27.716385975338596 50
      vertex -11.48050297095271 -27.716385975338596 70
    endloop
  endfacet
  facet normal 0.0 0.0 -1.0
    outer loop
      vertex 0 0 50
      vertex -5.8527096604838595 -29.42355841209691 50
      vertex -11.48050297095271 -27.716385975338596 50
    endloop
  endfacet
  facet normal 0.0 0.0 1.0
    outer loop
      vertex 0 0 70
      vertex -11.48050297095271 -27.716385975338596 70
      vertex -5.8527096604838595 -29.42355841209691 70
    endloop
  endfacet
  facet normal -0.2902846772544625 -0.9569403357322088 0.0
    outer loop
      vertex -11.48050297095271 -27.716385975338596 50
      vertex -5.8527096604838595 -29.42355841209691 50
      vertex -11.48050297095271 -27.716385975338596 70
    endloop
  endfacet
  facet normal -0.2902846772544625 -0.9569403357322088 0.0
    outer loop
      vertex -11.48050297095271 -27.716385975338596 70
      vertex -5.8527096604838595 -29.42355841209691 50
      vertex -5.8527096604838595 -29.42355841209691 70
    endloop
  endfacet
  facet normal 0.0 0.0 -1.0
    outer loop
      vertex 0 0 50
      vertex -5.510910596163089e-15 -30.0 50
      vertex -5.8527096604838595 -29.42355841209691 50
    endloop
  endfacet
  facet normal 0.0 0.0 1.0
    outer loop
      vertex 0 0 70
      vertex -5.8527096604838595 -29.42355841209691 70
      vertex -5.510910596163089e-15 -30.0 70
    endloop
  endfacet
  facet normal -0.09801714032956119 -0.9951847266721967 0.0
    outer loop
      vertex -5.8527096604838595 -29.42355841209691 50
      vertex -5.510910596163089e-15 -30.0 50
      vertex -5.8527096604838595 -29.42355841209691 70
    endloop
  endfacet
  facet normal -0.09801714032956119 -0.9951847266721967 0.0
    outer loop
      vertex -5.8527096604838595 -29.42355841209691 70
      vertex -5.510910596163089e-15 -30.0 50
      vertex -5.510910596163089e-15 -30.0 70
    endloop
  endfacet
  facet normal 0.0 -0.0 -1.0
    outer loop
      vertex 0 0 50
      vertex 5.852709660483849 -29.423558412096913 50
      vertex -5.510910596163089e-15 -30.0 50
    endloop
  endfacet
  facet normal 0.0 0.0 1.0
    outer loop
      vertex 0 0 70
      vertex -5.510910596163089e-15 -30.0 70
      vertex 5.852709660483849 -29.423558412096913 70
    endloop
  endfacet
  facet normal 0.09801714032956059 -0.9951847266721969 0.0
    outer loop
      vertex -5.510910596163089e-15 -30.0 50
      vertex 5.852709660483849 -29.423558412096913 50
      vertex -5.510910596163089e-15 -30.0 70
    endloop
  endfacet
  facet normal 0.09801714032956059 -0.9951847266721969 0.0
    outer loop
      vertex -5.510910596163089e-15 -30.0 70
      vertex 5.852709660483849 -29.423558412096913 50
      vertex 5.852709660483849 -29.423558412096913 70
    endloop
  endfacet
  facet normal 0.0 0.0 -1.0
    outer loop
      vertex 0 0 50
      vertex 11.480502970952701 -27.7163859753386 50
      vertex 5.852709660483849 -29.423558412096913 50
    endloop
  endfacet
  facet normal 0.0 0.0 1.0
    outer loop
      vertex 0 0 70
      vertex 5.852709660483849 -29.423558412096913 70
      vertex 11.480502970952701 -27.7163859753386 70
    endloop
  endfacet
  facet normal 0.2902846772544624 -0.9569403357322088 0.0
    outer loop
      vertex 5.852709660483849 -29.423558412096913 50
      vertex 11.480502970952701 -27.7163859753386 50
      vertex 5.852709660483849 -29.423558412096913 70
    endloop
  endfacet
  facet normal 0.2902846772544624 -0.9569403357322088 0.0
    outer loop
      vertex 5.852709660483849 -29.423558412096913 70
      vertex 11.480502970952701 -27.7163859753386 50
      vertex 11.480502970952701 -27.7163859753386 70
    endloop
  endfacet
  facet normal 0.0 0.0 -1.0
    outer loop
      vertex 0 0 50
      vertex 16.667106990588056 -24.944088369076365 50
      vertex 11.480502970952701 -27.7163859753386 50
    endloop
  endfacet
  facet normal 0.0 0.0 1.0
    outer loop
      vertex 0 0 70
      vertex 11.480502970952701 -27.7163859753386 70
      vertex 16.667106990588056 -24.944088369076365 70
    endloop
  endfacet
  facet normal 0.47139673682599753 -0.881921264348355 0.0
    outer loop
      vertex 11.480502970952701 -27.7163859753386 50
      vertex 16.667106990588056 -24.944088369076365 50
      vertex 11.480502970952701 -27.7163859753386 70
    endloop
  endfacet
  facet normal 0.47139673682599753 -0.881921264348355 0.0
    outer loop
      vertex 11.480502970952701 -27.7163859753386 70
      vertex 16.667106990588056 -24.944088369076365 50
      vertex 16.667106990588056 -24.944088369076365 70
    endloop
  endfacet
  facet normal 0.0 0.0 -1.0
    outer loop
      vertex 0 0 50
      vertex 21.21320343559642 -21.21320343559643 50
      vertex 16.667106990588056 -24.944088369076365 50
    endloop
  endfacet
  facet normal 0.0 0.0 1.0
    outer loop
      vertex 0 0 70
      vertex 16.667106990588056 -24.944088369076365 70
      vertex 21.21320343559642 -21.21320343559643 70
    endloop
  endfacet
  facet normal 0.6343932841636455 -0.7730104533627369 0.0
    outer loop
      vertex 16.667106990588056 -24.944088369076365 50
      vertex 21.21320343559642 -21.21320343559643 50
      vertex 16.667106990588056 -24.944088369076365 70
    endloop
  endfacet
  facet normal 0.6343932841636455 -0.7730104533627369 0.0
    outer loop
      vertex 16.667106990588056 -24.944088369076365 70
      vertex 21.21320343559642 -21.21320343559643 50
      vertex 21.21320343559642 -21.21320343559643 70
    endloop
  endfacet
  facet normal 0.0 0.0 -1.0
    outer loop
      vertex 0 0 50
      vertex 24.944088369076358 -16.667106990588067 50
      vertex 21.21320343559642 -21.21320343559643 50
    endloop
  endfacet
  facet normal 0.0 0.0 1.0
    outer loop
      vertex 0 0 70
      vertex 21.21320343559642 -21.21320343559643 70
      vertex 24.944088369076358 -16.667106990588067 70
    endloop
  endfacet
  facet normal 0.7730104533627367 -0.6343932841636458 0.0
    outer loop
      vertex 21.21320343559642 -21.21320343559643 50
      vertex 24.944088369076358 -16.667106990588067 50
      vertex 21.21320343559642 -21.21320343559643 70
    endloop
  endfacet
  facet normal 0.7730104533627367 -0.6343932841636458 0.0
    outer loop
      vertex 21.21320343559642 -21.21320343559643 70
      vertex 24.944088369076358 -16.667106990588067 50
      vertex 24.944088369076358 -16.667106990588067 70
    endloop
  endfacet
  facet normal 0.0 0.0 -1.0
    outer loop
      vertex 0 0 50
      vertex 27.716385975338596 -11.480502970952712 50
      vertex 24.944088369076358 -16.667106990588067 50
    endloop
  endfacet
  facet normal 0.0 0.0 1.0
    outer loop
      vertex 0 0 70
      vertex 24.944088369076358 -16.667106990588067 70
      vertex 27.716385975338596 -11.480502970952712 70
    endloop
  endfacet
  facet normal 0.8819212643483548 -0.47139673682599803 0.0
    outer loop
      vertex 24.944088369076358 -16.667106990588067 50
      vertex 27.716385975338596 -11.480502970952712 50
      vertex 24.944088369076358 -16.667106990588067 70
    endloop
  endfacet
  facet normal 0.8819212643483548 -0.47139673682599803 0.0
    outer loop
      vertex 24.944088369076358 -16.667106990588067 70
      vertex 27.716385975338596 -11.480502970952712 50
      vertex 27.716385975338596 -11.480502970952712 70
    endloop
  endfacet
  facet normal 0.0 0.0 -1.0
    outer loop
      vertex 0 0 50
      vertex 29.42355841209691 -5.852709660483861 50
      vertex 27.716385975338596 -11.480502970952712 50
    endloop
  endfacet
  facet normal 0.0 0.0 1.0
    outer loop
      vertex 0 0 70
      vertex 27.716385975338596 -11.480502970952712 70
      vertex 29.42355841209691 -5.852709660483861 70
    endloop
  endfacet
  facet normal 0.9569403357322088 -0.2902846772544625 0.0
    outer loop
      vertex 27.716385975338596 -11.480502970952712 50
      vertex 29.42355841209691 -5.852709660483861 50
      vertex 27.716385975338596 -11.480502970952712 70
    endloop
  endfacet
  facet normal 0.9569403357322088 -0.2902846772544625 0.0
    outer loop
      vertex 27.716385975338596 -11.480502970952712 70
      vertex 29.42355841209691 -5.852709660483861 50
      vertex 29.42355841209691 -5.852709660483861 70
    endloop
  endfacet
  facet normal 0.0 0.0 -1.0
    outer loop
      vertex 0 0 50
      vertex 30.0 -7.34788079488412e-15 50
      vertex 29.42355841209691 -5.852709660483861 50
    endloop
  endfacet
  facet normal 0.0 0.0 1.0
    outer loop
      vertex 0 0 70
      vertex 29.42355841209691 -5.852709660483861 70
      vertex 30.0 -7.34788079488412e-15 70
    endloop
  endfacet
  facet normal 0.9951847266721967 -0.09801714032956119 0.0
    outer loop
      vertex 29.42355841209691 -5.852709660483861 50
      vertex 30.0 -7.34788079488412e-15 50
      vertex 29.42355841209691 -5.852709660483861 70
    endloop
  endfacet
  facet normal 0.9951847266721967 -0.09801714032956119 0.0
    outer loop
      vertex 29.42355841209691 -5.852709660483861 70
      vertex 30.0 -7.34788079488412e-15 50
      vertex 30.0 -7.34788079488412e-15 70
    endloop
  endfacet
endsolid robot
